<svg width="100" height="100" viewBox="0 0 100 100" xmlns="http://www.w3.org/2000/svg">
  <defs>
    <linearGradient id="googleGradient" x1="0%" y1="0%" x2="100%" y2="100%">
      <stop offset="0%" style="stop-color:#4285F4;stop-opacity:1" />
      <stop offset="25%" style="stop-color:#34A853;stop-opacity:1" />
      <stop offset="50%" style="stop-color:#FBBC05;stop-opacity:1" />
      <stop offset="75%" style="stop-color:#EA4335;stop-opacity:1" />
      <stop offset="100%" style="stop-color:#4285F4;stop-opacity:1" />
    </linearGradient>
  </defs>
  
  <!-- Cloud shape -->
  <path d="M75 35c0-11.046-8.954-20-20-20-8.837 0-16.348 5.736-19.019 13.709C33.729 29.466 32.115 30 30.5 30 25.253 30 21 34.253 21 39.5c0 1.381.297 2.693.831 3.877C18.671 44.925 17 47.696 17 50.9c0 5.247 4.253 9.5 9.5 9.5h43c8.284 0 15-6.716 15-15 0-7.806-5.956-14.214-13.5-14.9z" 
        fill="url(#googleGradient)" 
        stroke="#fff" 
        stroke-width="2"/>
  
  <!-- "GC" text -->
  <text x="50" y="75" font-family="Arial, sans-serif" font-size="16" font-weight="bold" text-anchor="middle" fill="#fff">GC</text>
</svg> 